<mxfile host="Electron" agent="Mozilla/5.0 (Windows NT 10.0; Win64; x64) AppleWebKit/537.36 (KHTML, like Gecko) draw.io/28.1.2 Chrome/138.0.7204.243 Electron/37.4.0 Safari/537.36" version="28.1.2">
  <diagram name="Page-1" id="aj_pvjdbXN8q9EMOHIOM">
    <mxGraphModel dx="1426" dy="841" grid="1" gridSize="10" guides="1" tooltips="1" connect="1" arrows="1" fold="1" page="1" pageScale="1" pageWidth="850" pageHeight="1100" math="0" shadow="0">
      <root>
        <mxCell id="0" />
        <mxCell id="1" parent="0" />
        <mxCell id="iXJHhvcSak3m99SO2qNS-2" value="" style="rounded=1;whiteSpace=wrap;html=1;fillColor=#fff2cc;strokeColor=#d6b656;" vertex="1" parent="1">
          <mxGeometry x="60" y="40" width="1040" height="280" as="geometry" />
        </mxCell>
        <mxCell id="iXJHhvcSak3m99SO2qNS-3" value="" style="rounded=1;whiteSpace=wrap;html=1;fillColor=#dae8fc;strokeColor=#6c8ebf;" vertex="1" parent="1">
          <mxGeometry x="60" y="400" width="1050" height="410" as="geometry" />
        </mxCell>
        <mxCell id="iXJHhvcSak3m99SO2qNS-4" value="Order Exchange" style="rounded=0;whiteSpace=wrap;html=1;" vertex="1" parent="1">
          <mxGeometry x="480" y="450" width="120" height="60" as="geometry" />
        </mxCell>
        <mxCell id="iXJHhvcSak3m99SO2qNS-6" value="Delivery Exchange" style="rounded=0;whiteSpace=wrap;html=1;" vertex="1" parent="1">
          <mxGeometry x="790" y="450" width="120" height="60" as="geometry" />
        </mxCell>
        <mxCell id="iXJHhvcSak3m99SO2qNS-7" value="Payment Exchange" style="rounded=0;whiteSpace=wrap;html=1;" vertex="1" parent="1">
          <mxGeometry x="170" y="450" width="120" height="60" as="geometry" />
        </mxCell>
        <mxCell id="iXJHhvcSak3m99SO2qNS-8" value="Order Queue" style="rounded=0;whiteSpace=wrap;html=1;" vertex="1" parent="1">
          <mxGeometry x="480" y="640" width="120" height="60" as="geometry" />
        </mxCell>
        <mxCell id="iXJHhvcSak3m99SO2qNS-9" value="Payment Queue" style="rounded=0;whiteSpace=wrap;html=1;" vertex="1" parent="1">
          <mxGeometry x="170" y="640" width="120" height="60" as="geometry" />
        </mxCell>
        <mxCell id="iXJHhvcSak3m99SO2qNS-11" value="Delivery Queue" style="rounded=0;whiteSpace=wrap;html=1;" vertex="1" parent="1">
          <mxGeometry x="810" y="640" width="120" height="60" as="geometry" />
        </mxCell>
        <mxCell id="iXJHhvcSak3m99SO2qNS-13" style="edgeStyle=orthogonalEdgeStyle;rounded=0;orthogonalLoop=1;jettySize=auto;html=1;entryX=0.5;entryY=0;entryDx=0;entryDy=0;" edge="1" parent="1" source="iXJHhvcSak3m99SO2qNS-12" target="iXJHhvcSak3m99SO2qNS-4">
          <mxGeometry relative="1" as="geometry" />
        </mxCell>
        <mxCell id="iXJHhvcSak3m99SO2qNS-14" value="Text" style="edgeLabel;html=1;align=center;verticalAlign=middle;resizable=0;points=[];" vertex="1" connectable="0" parent="iXJHhvcSak3m99SO2qNS-13">
          <mxGeometry x="-0.3917" y="2" relative="1" as="geometry">
            <mxPoint as="offset" />
          </mxGeometry>
        </mxCell>
        <mxCell id="iXJHhvcSak3m99SO2qNS-12" value="ORDER API" style="rounded=1;whiteSpace=wrap;html=1;" vertex="1" parent="1">
          <mxGeometry x="480" y="150" width="120" height="60" as="geometry" />
        </mxCell>
      </root>
    </mxGraphModel>
  </diagram>
</mxfile>
